<svg aria-hidden="true" class="valign-middle absoluteCenter" style="width:16px;height:16px;overflow:visible;fill:currentcolor" viewBox="0 0 24 24"><path d="M12 1.35C6.118 1.35 1.35 6.118 1.35 12c0 5.882 4.768 10.65 10.65 10.65 5.882 0 10.65-4.768 10.65-10.65 0-5.882-4.768-10.65-10.65-10.65zm0 1.5a9.15 9.15 0 1 1-.001 18.301A9.15 9.15 0 0 1 12 2.85zm-.75 7.928v6.486a.75.75 0 0 0 1.5 0v-6.486a.75.75 0 0 0-1.5 0zm1.5-3.056v-.61a.75.75 0 1 0-1.5 0v.61a.75.75 0 0 0 1.5 0z"/><circle cx="50%" cy="50%" r="75%" fill="transparent" class="sb-icon-hover"/></svg>